# xmcd
#
# Track frame offsets: 
#        150
#        21172
#        40403
#        55919
#        74912
#        101131
#        122878
#        138723
#        158792
#        176061
#
# Disc length: 2551 seconds
#
# Revision: 0
# Processed by: cddbd v1.5.2PL0 Copyright (c) Steve Scherf et al.
# Submitted via: ExactAudioCopy v0.95b2
#
DISCID=9b09f50a
DTITLE=Grufti-Band - Living Rom Session
DYEAR=2000
DGENRE=Jazz
TTITLE0=Who's Sorry Now
TTITLE1=Frankie and Johnny
TTITLE2=Tiger Rag
TTITLE3=Georgia On My Mind
TTITLE4=St. Louis Blues
TTITLE5=Bill Bailey
TTITLE6=At The Jazzband Ball
TTITLE7=Creole Love Call
TTITLE8=Jambalaya
TTITLE9=Ulla's Blues
EXTD=
EXTT0=
EXTT1=
EXTT2=
EXTT3=
EXTT4=
EXTT5=
EXTT6=
EXTT7=
EXTT8=
EXTT9=
PLAYORDER=
